<?xml version="1.0" encoding="utf-8"?>
<!-- Generator: Adobe Illustrator 16.0.0, SVG Export Plug-In . SVG Version: 6.00 Build 0)  -->
<!DOCTYPE svg PUBLIC "-//W3C//DTD SVG 1.1//EN" "http://www.w3.org/Graphics/SVG/1.1/DTD/svg11.dtd">
<svg version="1.1" id="person" xmlns="http://www.w3.org/2000/svg" xmlns:xlink="http://www.w3.org/1999/xlink" x="0px" y="0px"
	 width="385.284px" height="385.175px" viewBox="0 0 385.284 385.175" enable-background="new 0 0 385.284 385.175"
	 xml:space="preserve">
<g>
	<path fill-rule="evenodd" clip-rule="evenodd" d="M192.643,2.269C87.532,2.269,2.323,87.478,2.323,192.587
		c0,105.11,85.208,190.319,190.319,190.319c105.109,0,190.318-85.209,190.318-190.319C382.961,87.478,297.752,2.269,192.643,2.269z
		 M293.227,187.388c-3.229,7.806-6.477,15.665-10.496,23.076c-24.253,44.704-56.525,83.404-90.855,120.536c-0.547,0-1.094,0-1.641,0
		c-0.517-0.709-0.965-1.48-1.558-2.119c-18.604-20.051-36.264-40.896-52.662-62.793c-16.289-21.751-31.346-44.25-42.781-69.045
		c-9.403-20.391-12.743-41.352-6.827-63.24c11.178-41.354,37.49-67.955,78.772-79.471c6.176-1.723,12.685-2.25,19.04-3.331
		c4.74,0,9.479,0,14.219,0c3.148,0.415,6.327,0.666,9.439,1.269c44.907,8.696,74.347,34.848,87.561,78.642
		C301.14,149.805,300.883,168.873,293.227,187.388z"/>
	<path fill-rule="evenodd" clip-rule="evenodd" d="M191.184,92.614c-33.244,0.074-60.208,27.208-60.115,60.496
		c0.093,33.308,27.179,60.316,60.398,60.227c33.234-0.089,60.217-27.242,60.127-60.508
		C251.504,119.527,224.43,92.541,191.184,92.614z"/>
</g>
</svg>
