<svg xmlns="http://www.w3.org/2000/svg">
	<symbol viewBox="0 0 385.284 385.175" id="people-circle"><title>people-circle</title> <path fill-rule="evenodd" clip-rule="evenodd" d="M192.643,2.269C87.532,2.269,2.323,87.478,2.323,192.587
	c0,105.11,85.208,190.319,190.319,190.319c105.109,0,190.318-85.209,190.318-190.319C382.961,87.478,297.752,2.269,192.643,2.269z
	 M30.543,263.869c-0.078-0.633-0.243-1.23-0.211-1.817c0.34-6.301,0.619-12.608,1.105-18.897c0.367-4.756,3.61-7.736,7.157-10.316
	c8.446-6.146,17.974-10.227,27.663-13.871c10.93-4.111,22.013-7.819,32.988-11.812c6.955-2.532,8.462-4.707,8.439-12.016
	c-0.014-4.678-0.106-9.372-0.54-14.023c-0.165-1.768-1.022-3.744-2.18-5.1c-5.99-7.013-7.992-15.519-9.764-24.215
	c-0.651-3.196-1.836-6.354-3.234-9.312c-2.764-5.847-4.54-11.901-4.919-18.356c-0.048-0.806-0.169-1.728,0.142-2.416
	c2.835-6.264,1.267-12.746,0.235-18.884c-3.273-19.488,10.237-38.125,26.939-43.766c17.73-5.988,35.063-5.335,50.81,5.695
	c4.097,2.87,7.51,6.24,10.181,10.054c-2.027,0.532-4.059,1.14-6.096,1.828c-19.265,6.506-34.848,28.002-31.073,50.48
	c1.189,7.081,2.999,14.557-0.271,21.782c-0.359,0.793-0.219,1.856-0.164,2.786c0.437,7.445,2.486,14.428,5.674,21.172
	c1.613,3.413,2.979,7.055,3.73,10.741c2.043,10.03,4.353,19.842,11.262,27.931c1.335,1.563,2.325,3.843,2.515,5.882
	c0.5,5.365,0.606,10.78,0.622,16.176c0.026,8.43-1.712,10.938-9.734,13.858c-12.659,4.606-25.442,8.883-38.049,13.625
	c-2.389,0.898-4.766,1.829-7.127,2.792C81.274,263.869,55.917,263.869,30.543,263.869z M276.427,263.869
	c-8.35-3.477-16.721-6.902-25.121-10.254c-6.527-2.604-13.296-4.603-19.922-6.966c-4.481-1.599-7.454-4.582-7.573-9.593
	c-0.141-5.92-0.424-11.872,0.036-17.757c0.221-2.831,1.425-6,3.188-8.216c5.132-6.448,7.88-13.765,9.667-21.655
	c1.181-5.213,2.674-10.368,4.308-15.459c0.94-2.931,2.697-5.599,3.637-8.53c2.357-7.366,4.252-14.795,0.946-22.471
	c-0.441-1.026-0.007-2.45,0.088-3.684c0.565-7.248,1.923-14.533,1.565-21.733c-0.719-14.46-7.682-26.142-19.384-34.339
	c-8.915-6.245-18.271-9.6-27.906-10.586c4.924-6.283,11.522-11.129,18.718-13.559c17.73-5.988,35.063-5.335,50.81,5.695
	c10.146,7.106,16.183,17.235,16.806,29.771c0.31,6.243-0.867,12.559-1.357,18.843c-0.082,1.069-0.459,2.304-0.076,3.193
	c2.865,6.655,1.223,13.096-0.82,19.482c-0.814,2.542-2.338,4.854-3.153,7.396c-1.417,4.414-2.711,8.884-3.734,13.403
	c-1.55,6.84-3.933,13.184-8.382,18.774c-1.528,1.922-2.572,4.669-2.764,7.123c-0.398,5.103-0.153,10.263-0.031,15.396
	c0.104,4.344,2.68,6.931,6.565,8.316c5.745,2.049,11.612,3.781,17.272,6.039c12.259,4.892,24.456,9.946,36.593,15.134
	c2.864,1.224,5.473,3.117,8.057,4.907c4.461,3.091,7.679,6.891,7.762,12.82c0.086,6.096,0.662,12.184,1.039,18.511
	C320.925,263.869,298.659,263.869,276.427,263.869z"/> </symbol><symbol viewBox="0 0 385.284 385.175" id="person-circle"><title>person-circle</title> <path fill-rule="evenodd" clip-rule="evenodd" d="M192.643,2.269C87.532,2.269,2.323,87.478,2.323,192.587
	c0,105.11,85.208,190.319,190.319,190.319c105.109,0,190.318-85.209,190.318-190.319C382.961,87.478,297.752,2.269,192.643,2.269z
	 M72.576,312.869c-0.09-0.729-0.281-1.419-0.244-2.097c0.392-7.268,0.714-14.542,1.274-21.797c0.424-5.485,4.165-8.923,8.256-11.899
	c9.741-7.088,20.732-11.795,31.907-15.999c12.607-4.742,25.39-9.019,38.049-13.625c8.022-2.92,9.76-5.429,9.734-13.858
	c-0.016-5.396-0.123-10.811-0.622-16.176c-0.19-2.039-1.179-4.318-2.515-5.882c-6.909-8.089-9.218-17.9-11.262-27.931
	c-0.751-3.687-2.118-7.329-3.73-10.741c-3.188-6.745-5.237-13.728-5.674-21.172c-0.055-0.93-0.195-1.993,0.164-2.786
	c3.271-7.225,1.461-14.701,0.271-21.782c-3.775-22.478,11.808-43.974,31.073-50.48c20.451-6.906,40.443-6.154,58.605,6.569
	c11.702,8.197,18.665,19.879,19.384,34.339c0.357,7.201-1,14.485-1.565,21.733c-0.095,1.234-0.529,2.658-0.088,3.684
	c3.306,7.676,1.411,15.105-0.946,22.471c-0.939,2.931-2.696,5.599-3.637,8.53c-1.634,5.091-3.127,10.247-4.308,15.459
	c-1.787,7.891-4.535,15.207-9.667,21.655c-1.764,2.216-2.968,5.385-3.188,8.216c-0.46,5.885-0.177,11.837-0.036,17.757
	c0.119,5.011,3.092,7.994,7.573,9.593c6.626,2.363,13.395,4.361,19.922,6.966c14.141,5.642,28.209,11.473,42.208,17.455
	c3.304,1.412,6.312,3.596,9.292,5.66c5.146,3.565,8.857,7.948,8.953,14.788c0.099,7.03,0.764,14.053,1.198,21.351
	C232.417,312.869,152.594,312.869,72.576,312.869z"/> </symbol><symbol viewBox="0 0 385.284 385.175" id="point-circle"><title>point-circle</title> <g> <path fill-rule="evenodd" clip-rule="evenodd" d="M192.643,2.269C87.532,2.269,2.323,87.478,2.323,192.587
		c0,105.11,85.208,190.319,190.319,190.319c105.109,0,190.318-85.209,190.318-190.319C382.961,87.478,297.752,2.269,192.643,2.269z
		 M293.227,187.388c-3.229,7.806-6.477,15.665-10.496,23.076c-24.253,44.704-56.525,83.404-90.855,120.536c-0.547,0-1.094,0-1.641,0
		c-0.517-0.709-0.965-1.48-1.558-2.119c-18.604-20.051-36.264-40.896-52.662-62.793c-16.289-21.751-31.346-44.25-42.781-69.045
		c-9.403-20.391-12.743-41.352-6.827-63.24c11.178-41.354,37.49-67.955,78.772-79.471c6.176-1.723,12.685-2.25,19.04-3.331
		c4.74,0,9.479,0,14.219,0c3.148,0.415,6.327,0.666,9.439,1.269c44.907,8.696,74.347,34.848,87.561,78.642
		C301.14,149.805,300.883,168.873,293.227,187.388z"/> <path fill-rule="evenodd" clip-rule="evenodd" d="M191.184,92.614c-33.244,0.074-60.208,27.208-60.115,60.496
		c0.093,33.308,27.179,60.316,60.398,60.227c33.234-0.089,60.217-27.242,60.127-60.508
		C251.504,119.527,224.43,92.541,191.184,92.614z"/> </g> </symbol>

		<symbol viewBox="0 0 146.395 161.49" id="stinger_logo"><title>stinger_logo</title> <g> <path fill-rule="evenodd" clip-rule="evenodd" d="M126.874,74.517c-7.295-1.374-13.7,1.51-19.776,5.126
		c-0.686,0.408-1.306,1.866-1.118,2.632c0.588,2.387,1.577,4.675,2.395,6.955c2.741-2.162,4.828-4.147,7.227-5.628
		c5.229-3.226,13.171-2.347,18.501,1.77c4.995,3.86,6.274,8.225,3.902,15.394c-4.324,13.062-15.62,18.963-26.8,25.998
		c0.308-2.83,0.534-4.895,0.734-6.736c-4.214,1.818-8.045,3.849-12.107,5.15c-11.23,3.6-23.075,4.799-34.421,2.84
		c-6.343-1.096-12.748-0.719-18.887-2.188c-5.747-1.376-11.325-3.569-16.825-5.779c-1.316-0.529-2.712-2.473-2.885-3.91
		c-0.419-3.474-0.136-7.031-0.136-10.146c6.282,2.271,11.749,4.748,17.476,6.21c12.836,3.278,25.969,3.153,39.092,2.279
		c8.187-0.546,16.335-1.268,23.833-5.142c2.978-1.539,4.768-3.713,4.378-7.096c-0.438-3.794-1.197-7.552-1.909-11.898
		c-6.041,6.084-13.318,7.437-20.62,8.46c-17.68,2.478-35.139,1.539-52.133-4.288c-2.082-0.714-4.398-2.058-5.597-3.803
		c-4.572-6.656-8.552-13.715-13.092-20.393C13.686,63.825,6.64,63.124,0,68.394c0.679,0.79,1.202,1.82,2.042,2.306
		c4.878,2.824,6.044,7.429,6.335,12.544C8.681,88.562,9.001,93.88,9.416,99.19c1.019,13.075,22.261,34.587,25.5,35.206
		c0.802,0.154,1.678,0.136,2.402,0.46c15.812,7.073,32.394,7.001,49.029,4.753c6.849-0.925,13.492-3.37,20.229-5.125
		c0.002-0.006-0.212,0.599-0.3,1.222c-0.077,0.555-0.017,1.13-0.017,2.195c11.337-6.073,22.231-11.896,30.435-21.313
		c3.338-3.831,6.262-8.436,7.977-13.191C150.356,87.62,141.347,77.242,126.874,74.517z M43.166,130.565
		c-0.25-0.043-0.543,0.265-0.834,0.342c-0.572,0.15-1.157,0.254-1.737,0.377c0.135-0.713,0.242-2.041,0.407-2.049
		c4.076-0.18,8.158-0.246,12.236-0.176c0.148,0.004,0.269,1.615,0.551,3.443C49.865,131.779,46.519,131.15,43.166,130.565z"/> <path fill-rule="evenodd" clip-rule="evenodd" d="M52.16,65.745c12.019,4.213,24.103,3.969,36.216,0.638
		c2.583-0.71,10.565,4.391,11.938,5.814c4.543,4.713,3.704,8.215-2.655,10.04c-11.237,3.226-22.789,4.692-34.438,3.513
		c-7.562-0.766-15.074-2.348-22.5-4.038c-4.795-1.092-5.265-2.879-2.473-6.962C39.771,72.525,50.978,65.331,52.16,65.745z"/> <path fill-rule="evenodd" clip-rule="evenodd" d="M37.341,141.87c22.161,7.88,42.964,9.181,64.82,0.144
		c-1.584,1.9-2.8,3.062-3.652,4.447c-1.507,2.449-2.592,5.176-4.235,7.517c-1.23,1.753-2.835,4.008-4.661,4.459
		c-13.975,3.439-28.01,5.123-41.707-1.269c-2.084-0.973-4.035-2.264-5.938-3.569c-0.596-0.406-1.353-1.639-1.154-1.983
		C43.1,147.657,40.137,145.17,37.341,141.87z"/> <path fill-rule="evenodd" clip-rule="evenodd" d="M96.459,5.271c0,0.787-0.2,1.644,0.045,2.346
		c0.438,1.269,1.145,2.445,1.739,3.66c1.295-1,3.176-1.736,3.773-3.053c1.431-3.163-1.092-6.473-4.911-6.737
		c-6.83-0.473-11.701,2.946-14.44,8.765c-2.27,4.82-3.463,10.146-5.687,16.944c-0.277-1.139-0.786-1.986-0.579-2.579
		c2.115-5.992,3.731-12.276,6.728-17.805c2.758-5.084,8.153-7.083,14.027-6.783c3.489,0.178,6.401,1.984,6.515,5.539
		c0.069,2.19-1.441,4.742-2.958,6.522c-0.626,0.737-4.11,0.446-4.565-0.358c-1.027-1.811-0.973-4.233-1.359-6.406
		C95.344,5.309,95.9,5.289,96.459,5.271z"/> <path fill-rule="evenodd" clip-rule="evenodd" d="M64.117,26.433c-0.18-1.279-0.279-2.354-0.489-3.407
		c-1.295-6.524-3.785-12.598-9.999-15.626c-2.874-1.401-6.838-1.477-10.062-0.863c-1.607,0.306-3.172,3.381-3.732,5.478
		c-0.253,0.947,1.992,2.562,3.102,3.875c0.92-1.224,1.94-2.389,2.716-3.697c0.354-0.597,0.227-1.479,0.318-2.231
		c0.441,0.076,0.881,0.151,1.322,0.228c-0.514,2.096-0.521,4.596-1.738,6.133c-0.696,0.877-4.266,0.911-4.961,0.049
		c-1.348-1.669-2.389-4.351-2.108-6.415c0.589-4.312,5.466-6.621,11.132-5.837c9.006,1.245,15.862,12.516,15.857,21.664
		C65.476,25.894,65.033,26.005,64.117,26.433z"/> <path fill-rule="evenodd" clip-rule="evenodd" d="M58.566,37.287c3.316-0.048,4.785,1.87,4.216,4.091
		c-0.418,1.633-2.485,3.702-4.047,3.919c-1.259,0.175-2.863-2.132-4.313-3.336C56.064,40.511,54.78,36.138,58.566,37.287z"/> <path fill-rule="evenodd" clip-rule="evenodd" d="M83.39,36.642c1.726,2.08,3.941,3.595,4.05,5.25
		c0.086,1.299-2.398,3.82-3.807,3.869c-1.43,0.049-3.935-2.13-4.132-3.583C79.316,40.812,81.531,39.123,83.39,36.642z"/> </g> <path fill-rule="evenodd" clip-rule="evenodd" d="M53.99,127.373c1.391,0.167,1.432,7.743,1.432,7.743l-24.997-4.454
	C30.425,130.662,52.598,127.21,53.99,127.373z"/> </symbol></svg>