<?xml version="1.0" encoding="utf-8"?>
<!-- Generator: Adobe Illustrator 16.0.0, SVG Export Plug-In . SVG Version: 6.00 Build 0)  -->
<!DOCTYPE svg PUBLIC "-//W3C//DTD SVG 1.1//EN" "http://www.w3.org/Graphics/SVG/1.1/DTD/svg11.dtd">
<svg version="1.1" id="person" xmlns="http://www.w3.org/2000/svg" xmlns:xlink="http://www.w3.org/1999/xlink" x="0px" y="0px"
	 width="385.284px" height="385.175px" viewBox="0 0 385.284 385.175" enable-background="new 0 0 385.284 385.175"
	 xml:space="preserve">
<path fill-rule="evenodd" clip-rule="evenodd" d="M192.643,2.269C87.532,2.269,2.323,87.478,2.323,192.587
	c0,105.11,85.208,190.319,190.319,190.319c105.109,0,190.318-85.209,190.318-190.319C382.961,87.478,297.752,2.269,192.643,2.269z
	 M30.543,263.869c-0.078-0.633-0.243-1.23-0.211-1.817c0.34-6.301,0.619-12.608,1.105-18.897c0.367-4.756,3.61-7.736,7.157-10.316
	c8.446-6.146,17.974-10.227,27.663-13.871c10.93-4.111,22.013-7.819,32.988-11.812c6.955-2.532,8.462-4.707,8.439-12.016
	c-0.014-4.678-0.106-9.372-0.54-14.023c-0.165-1.768-1.022-3.744-2.18-5.1c-5.99-7.013-7.992-15.519-9.764-24.215
	c-0.651-3.196-1.836-6.354-3.234-9.312c-2.764-5.847-4.54-11.901-4.919-18.356c-0.048-0.806-0.169-1.728,0.142-2.416
	c2.835-6.264,1.267-12.746,0.235-18.884c-3.273-19.488,10.237-38.125,26.939-43.766c17.73-5.988,35.063-5.335,50.81,5.695
	c4.097,2.87,7.51,6.24,10.181,10.054c-2.027,0.532-4.059,1.14-6.096,1.828c-19.265,6.506-34.848,28.002-31.073,50.48
	c1.189,7.081,2.999,14.557-0.271,21.782c-0.359,0.793-0.219,1.856-0.164,2.786c0.437,7.445,2.486,14.428,5.674,21.172
	c1.613,3.413,2.979,7.055,3.73,10.741c2.043,10.03,4.353,19.842,11.262,27.931c1.335,1.563,2.325,3.843,2.515,5.882
	c0.5,5.365,0.606,10.78,0.622,16.176c0.026,8.43-1.712,10.938-9.734,13.858c-12.659,4.606-25.442,8.883-38.049,13.625
	c-2.389,0.898-4.766,1.829-7.127,2.792C81.274,263.869,55.917,263.869,30.543,263.869z M276.427,263.869
	c-8.35-3.477-16.721-6.902-25.121-10.254c-6.527-2.604-13.296-4.603-19.922-6.966c-4.481-1.599-7.454-4.582-7.573-9.593
	c-0.141-5.92-0.424-11.872,0.036-17.757c0.221-2.831,1.425-6,3.188-8.216c5.132-6.448,7.88-13.765,9.667-21.655
	c1.181-5.213,2.674-10.368,4.308-15.459c0.94-2.931,2.697-5.599,3.637-8.53c2.357-7.366,4.252-14.795,0.946-22.471
	c-0.441-1.026-0.007-2.45,0.088-3.684c0.565-7.248,1.923-14.533,1.565-21.733c-0.719-14.46-7.682-26.142-19.384-34.339
	c-8.915-6.245-18.271-9.6-27.906-10.586c4.924-6.283,11.522-11.129,18.718-13.559c17.73-5.988,35.063-5.335,50.81,5.695
	c10.146,7.106,16.183,17.235,16.806,29.771c0.31,6.243-0.867,12.559-1.357,18.843c-0.082,1.069-0.459,2.304-0.076,3.193
	c2.865,6.655,1.223,13.096-0.82,19.482c-0.814,2.542-2.338,4.854-3.153,7.396c-1.417,4.414-2.711,8.884-3.734,13.403
	c-1.55,6.84-3.933,13.184-8.382,18.774c-1.528,1.922-2.572,4.669-2.764,7.123c-0.398,5.103-0.153,10.263-0.031,15.396
	c0.104,4.344,2.68,6.931,6.565,8.316c5.745,2.049,11.612,3.781,17.272,6.039c12.259,4.892,24.456,9.946,36.593,15.134
	c2.864,1.224,5.473,3.117,8.057,4.907c4.461,3.091,7.679,6.891,7.762,12.82c0.086,6.096,0.662,12.184,1.039,18.511
	C320.925,263.869,298.659,263.869,276.427,263.869z"/>
</svg>
