<?xml version="1.0" encoding="utf-8"?>
<!-- Generator: Adobe Illustrator 16.0.0, SVG Export Plug-In . SVG Version: 6.00 Build 0)  -->
<!DOCTYPE svg PUBLIC "-//W3C//DTD SVG 1.1//EN" "http://www.w3.org/Graphics/SVG/1.1/DTD/svg11.dtd">
<svg version="1.1" id="person" xmlns="http://www.w3.org/2000/svg" xmlns:xlink="http://www.w3.org/1999/xlink" x="0px" y="0px"
	 width="385.284px" height="385.175px" viewBox="0 0 385.284 385.175" enable-background="new 0 0 385.284 385.175"
	 xml:space="preserve">
<path fill-rule="evenodd" clip-rule="evenodd" d="M192.643,2.269C87.532,2.269,2.323,87.478,2.323,192.587
	c0,105.11,85.208,190.319,190.319,190.319c105.109,0,190.318-85.209,190.318-190.319C382.961,87.478,297.752,2.269,192.643,2.269z
	 M72.576,312.869c-0.09-0.729-0.281-1.419-0.244-2.097c0.392-7.268,0.714-14.542,1.274-21.797c0.424-5.485,4.165-8.923,8.256-11.899
	c9.741-7.088,20.732-11.795,31.907-15.999c12.607-4.742,25.39-9.019,38.049-13.625c8.022-2.92,9.76-5.429,9.734-13.858
	c-0.016-5.396-0.123-10.811-0.622-16.176c-0.19-2.039-1.179-4.318-2.515-5.882c-6.909-8.089-9.218-17.9-11.262-27.931
	c-0.751-3.687-2.118-7.329-3.73-10.741c-3.188-6.745-5.237-13.728-5.674-21.172c-0.055-0.93-0.195-1.993,0.164-2.786
	c3.271-7.225,1.461-14.701,0.271-21.782c-3.775-22.478,11.808-43.974,31.073-50.48c20.451-6.906,40.443-6.154,58.605,6.569
	c11.702,8.197,18.665,19.879,19.384,34.339c0.357,7.201-1,14.485-1.565,21.733c-0.095,1.234-0.529,2.658-0.088,3.684
	c3.306,7.676,1.411,15.105-0.946,22.471c-0.939,2.931-2.696,5.599-3.637,8.53c-1.634,5.091-3.127,10.247-4.308,15.459
	c-1.787,7.891-4.535,15.207-9.667,21.655c-1.764,2.216-2.968,5.385-3.188,8.216c-0.46,5.885-0.177,11.837-0.036,17.757
	c0.119,5.011,3.092,7.994,7.573,9.593c6.626,2.363,13.395,4.361,19.922,6.966c14.141,5.642,28.209,11.473,42.208,17.455
	c3.304,1.412,6.312,3.596,9.292,5.66c5.146,3.565,8.857,7.948,8.953,14.788c0.099,7.03,0.764,14.053,1.198,21.351
	C232.417,312.869,152.594,312.869,72.576,312.869z"/>
</svg>
