<?xml version="1.0" encoding="utf-8"?>
<!-- Generator: Adobe Illustrator 16.0.0, SVG Export Plug-In . SVG Version: 6.00 Build 0)  -->
<!DOCTYPE svg PUBLIC "-//W3C//DTD SVG 1.1//EN" "http://www.w3.org/Graphics/SVG/1.1/DTD/svg11.dtd">
<svg version="1.1" id="Layer_1" xmlns="http://www.w3.org/2000/svg" xmlns:xlink="http://www.w3.org/1999/xlink" x="0px" y="0px"
	 width="146.395px" height="161.49px" viewBox="0 0 146.395 161.49" enable-background="new 0 0 146.395 161.49"
	 xml:space="preserve">
<g>
	<path fill-rule="evenodd" clip-rule="evenodd" fill="#FFFF00" d="M126.874,74.517c-7.295-1.374-13.7,1.51-19.776,5.126
		c-0.686,0.408-1.306,1.866-1.118,2.632c0.588,2.387,1.577,4.675,2.395,6.955c2.741-2.162,4.828-4.147,7.227-5.628
		c5.229-3.226,13.171-2.347,18.501,1.77c4.995,3.86,6.274,8.225,3.902,15.394c-4.324,13.062-15.62,18.963-26.8,25.998
		c0.308-2.83,0.534-4.895,0.734-6.736c-4.214,1.818-8.045,3.849-12.107,5.15c-11.23,3.6-23.075,4.799-34.421,2.84
		c-6.343-1.096-12.748-0.719-18.887-2.188c-5.747-1.376-11.325-3.569-16.825-5.779c-1.316-0.529-2.712-2.473-2.885-3.91
		c-0.419-3.474-0.136-7.031-0.136-10.146c6.282,2.271,11.749,4.748,17.476,6.21c12.836,3.278,25.969,3.153,39.092,2.279
		c8.187-0.546,16.335-1.268,23.833-5.142c2.978-1.539,4.768-3.713,4.378-7.096c-0.438-3.794-1.197-7.552-1.909-11.898
		c-6.041,6.084-13.318,7.437-20.62,8.46c-17.68,2.478-35.139,1.539-52.133-4.288c-2.082-0.714-4.398-2.058-5.597-3.803
		c-4.572-6.656-8.552-13.715-13.092-20.393C13.686,63.825,6.64,63.124,0,68.394c0.679,0.79,1.202,1.82,2.042,2.306
		c4.878,2.824,6.044,7.429,6.335,12.544C8.681,88.562,9.001,93.88,9.416,99.19c1.019,13.075,22.261,34.587,25.5,35.206
		c0.802,0.154,1.678,0.136,2.402,0.46c15.812,7.073,32.394,7.001,49.029,4.753c6.849-0.925,13.492-3.37,20.229-5.125
		c0.002-0.006-0.212,0.599-0.3,1.222c-0.077,0.555-0.017,1.13-0.017,2.195c11.337-6.073,22.231-11.896,30.435-21.313
		c3.338-3.831,6.262-8.436,7.977-13.191C150.356,87.62,141.347,77.242,126.874,74.517z M43.166,130.565
		c-0.25-0.043-0.543,0.265-0.834,0.342c-0.572,0.15-1.157,0.254-1.737,0.377c0.135-0.713,0.242-2.041,0.407-2.049
		c4.076-0.18,8.158-0.246,12.236-0.176c0.148,0.004,0.269,1.615,0.551,3.443C49.865,131.779,46.519,131.15,43.166,130.565z"/>
	<path fill-rule="evenodd" clip-rule="evenodd" fill="#FFFF00" d="M52.16,65.745c12.019,4.213,24.103,3.969,36.216,0.638
		c2.583-0.71,10.565,4.391,11.938,5.814c4.543,4.713,3.704,8.215-2.655,10.04c-11.237,3.226-22.789,4.692-34.438,3.513
		c-7.562-0.766-15.074-2.348-22.5-4.038c-4.795-1.092-5.265-2.879-2.473-6.962C39.771,72.525,50.978,65.331,52.16,65.745z"/>
	<path fill-rule="evenodd" clip-rule="evenodd" fill="#FFFF00" d="M37.341,141.87c22.161,7.88,42.964,9.181,64.82,0.144
		c-1.584,1.9-2.8,3.062-3.652,4.447c-1.507,2.449-2.592,5.176-4.235,7.517c-1.23,1.753-2.835,4.008-4.661,4.459
		c-13.975,3.439-28.01,5.123-41.707-1.269c-2.084-0.973-4.035-2.264-5.938-3.569c-0.596-0.406-1.353-1.639-1.154-1.983
		C43.1,147.657,40.137,145.17,37.341,141.87z"/>
	<path fill-rule="evenodd" clip-rule="evenodd" fill="#FFFF00" d="M96.459,5.271c0,0.787-0.2,1.644,0.045,2.346
		c0.438,1.269,1.145,2.445,1.739,3.66c1.295-1,3.176-1.736,3.773-3.053c1.431-3.163-1.092-6.473-4.911-6.737
		c-6.83-0.473-11.701,2.946-14.44,8.765c-2.27,4.82-3.463,10.146-5.687,16.944c-0.277-1.139-0.786-1.986-0.579-2.579
		c2.115-5.992,3.731-12.276,6.728-17.805c2.758-5.084,8.153-7.083,14.027-6.783c3.489,0.178,6.401,1.984,6.515,5.539
		c0.069,2.19-1.441,4.742-2.958,6.522c-0.626,0.737-4.11,0.446-4.565-0.358c-1.027-1.811-0.973-4.233-1.359-6.406
		C95.344,5.309,95.9,5.289,96.459,5.271z"/>
	<path fill-rule="evenodd" clip-rule="evenodd" fill="#FFFF00" d="M64.117,26.433c-0.18-1.279-0.279-2.354-0.489-3.407
		c-1.295-6.524-3.785-12.598-9.999-15.626c-2.874-1.401-6.838-1.477-10.062-0.863c-1.607,0.306-3.172,3.381-3.732,5.478
		c-0.253,0.947,1.992,2.562,3.102,3.875c0.92-1.224,1.94-2.389,2.716-3.697c0.354-0.597,0.227-1.479,0.318-2.231
		c0.441,0.076,0.881,0.151,1.322,0.228c-0.514,2.096-0.521,4.596-1.738,6.133c-0.696,0.877-4.266,0.911-4.961,0.049
		c-1.348-1.669-2.389-4.351-2.108-6.415c0.589-4.312,5.466-6.621,11.132-5.837c9.006,1.245,15.862,12.516,15.857,21.664
		C65.476,25.894,65.033,26.005,64.117,26.433z"/>
	<path fill-rule="evenodd" clip-rule="evenodd" fill="#FFFF00" d="M58.566,37.287c3.316-0.048,4.785,1.87,4.216,4.091
		c-0.418,1.633-2.485,3.702-4.047,3.919c-1.259,0.175-2.863-2.132-4.313-3.336C56.064,40.511,54.78,36.138,58.566,37.287z"/>
	<path fill-rule="evenodd" clip-rule="evenodd" fill="#FFFF00" d="M83.39,36.642c1.726,2.08,3.941,3.595,4.05,5.25
		c0.086,1.299-2.398,3.82-3.807,3.869c-1.43,0.049-3.935-2.13-4.132-3.583C79.316,40.812,81.531,39.123,83.39,36.642z"/>
</g>
<path fill-rule="evenodd" clip-rule="evenodd" fill="#FFFF00" d="M53.99,127.373c1.391,0.167,1.432,7.743,1.432,7.743l-24.997-4.454
	C30.425,130.662,52.598,127.21,53.99,127.373z"/>
</svg>
